<svg width="48" height="78" viewBox="0 0 48 78" fill="none" xmlns="http://www.w3.org/2000/svg">
  <rect width="48" height="78" rx="8" fill="#111111"/>
  <path d="M44 32V10a4 4 0 0 0-4-4h-4a4 4 0 0 0-4 4v22a4 4 0 0 0 4 4h4a4 4 0 0 0 4-4ZM12 32V10a4 4 0 0 0-4-4H4a4 4 0 0 0-4 4v22a4 4 0 0 0 4 4h4a4 4 0 0 0 4-4ZM32 76H12a4 4 0 0 1-4-4v-4a4 4 0 0 1 4-4h20a4 4 0 0 1 4 4v4a4 4 0 0 1-4 4ZM44 66V44a4 4 0 0 0-4-4h-4a4 4 0 0 0-4 4v22a4 4 0 0 0 4 4h4a4 4 0 0 0 4-4ZM12 66V44a4 4 0 0 0-4-4H4a4 4 0 0 0-4 4v22a4 4 0 0 0 4 4h4a4 4 0 0 0 4-4ZM32 42H12a4 4 0 0 1-4-4v-4a4 4 0 0 1 4-4h20a4 4 0 0 1 4 4v4a4 4 0 0 1-4 4Z" fill="#5457FF"/>
  <path d="M32 12H12a4 4 0 0 1-4-4V4a4 4 0 0 1 4-4h20a4 4 0 0 1 4 4v4a4 4 0 0 1-4 4Z" fill="#8B8AFF"/>
</svg>
